inDegrees=yes
name=ik_Xsens_quaternion
DataType=double
version=3
OpenSimVersion=4.4-2022-07-23-0e9fedc
endheader
time	pelvis_tilt	pelvis_list	pelvis_rotation	pelvis_tx	pelvis_ty	pelvis_tz	hip_flexion_r	hip_adduction_r	hip_rotation_r	knee_angle_r	knee_angle_r_beta	ankle_angle_r	subtalar_angle_r	mtp_angle_r	hip_flexion_l	hip_adduction_l	hip_rotation_l	knee_angle_l	knee_angle_l_beta	ankle_angle_l	subtalar_angle_l	mtp_angle_l	lumbar_extension	lumbar_bending	lumbar_rotation	arm_flex_r	arm_add_r	arm_rot_r	elbow_flex_r	pro_sup_r	wrist_flex_r	wrist_dev_r	arm_flex_l	arm_add_l	arm_rot_l	elbow_flex_l	pro_sup_l	wrist_flex_l	wrist_dev_l
14.16666666666667	0	0	0	0	0.93	0	0	0	0	0	0	0	0	0	0	0	0	0	0	0	0	0	0	0	0	0	0	0	0	0	0	0	24.09535383748899	-7.72567778048714	-52.1703083085701	0.02644127664962884	44.95458667817567	0	0
14.18333333333333	-2.758691436281349e-33	0	0	0	0.93	0	0	0	0	0	0	0	0	0	0	0	0	0	0	0	0	0	-2.758691436281349e-33	0	0	0	-1.214672383956159e-51	0	0	0	0	0	24.09751018735897	-7.72170212350226	-52.17320499830423	0.02641643899120886	44.95483036777745	0	0
14.2	-3.685717596068836e-24	1.272640876368875e-14	1.507523263873795e-25	4.443487036953136e-21	0.93	5.774401241700285e-22	-4.868008460240357e-30	-1.530479795011781e-19	0	1.171674507128869e-14	2.044957793403148e-16	2.202561173589997e-13	4.244072479262677e-19	4.968316776737644e-17	7.215653998827279e-15	-4.598304043524119e-25	2.491927484926768e-14	1.171669914970759e-14	2.044923834676618e-16	6.419120695488299e-14	2.576117600122005e-18	-2.069919356586694e-19	2.350789858406328e-25	-2.128774295828749e-15	-9.92427467331232e-24	3.835292980271195e-20	1.711433563665463e-13	1.111509906482762e-12	1.171674156377988e-14	1.171665302701391e-14	-9.565324410074105e-15	-7.045877590271413e-15	24.09179136645587	-7.718099486360795	-52.19027385533015	0.02640811465212503	44.95507493554057	1.150824598582875e-13	6.580317838095417e-14
14.21666666666667	0	6.207055731633036e-33	4.310455369189608e-34	0	0.93	0	0	0	0	7.751623675539389e-38	9.406721285039032e-40	0	0	0	0	0	0	1.218339766361213e-37	5.147448328377544e-40	0	0	0	0	4.827710013492361e-33	0	0	0	8.624739905114563e-46	0	0	-4.900420400633275e-48	5.38806921148701e-36	24.08775659142004	-7.719947578728554	-52.20251780969402	0.02635129347838726	44.95531691353362	0	0
14.23333333333333	-3.448364295351686e-34	-4.827710013492361e-33	-5.31816486536032e-33	0	0.93	0	2.155227684594804e-35	0	0	0	0	0	0	0	2.155227684594804e-35	0	0	0	0	0	0	0	-3.448364295351686e-34	5.862219302097867e-33	0	0	0	0	0	0	0	0	24.08712866661898	-7.723733554445839	-52.21390244148823	0.02626229650042447	44.95555669407378	0	0
14.25	-2.355457827079181e-25	1.189723815974739e-16	-1.325968866867059e-24	1.16058493711447e-18	0.93	2.102314828514791e-27	-6.5635543457749e-25	1.143667652384227e-21	-8.053109252914733e-21	0	-9.406335678285829e-16	7.275620920853913e-15	1.438490212355198e-16	5.966339344112012e-17	6.076649298348383e-21	-1.382511483871975e-15	-2.098762150679637e-15	1.807491311741883e-14	3.748952650080124e-16	5.250311101043241e-15	-3.52725184587896e-14	-2.539797251684443e-15	-1.176077289036191e-14	5.016858934131401e-15	4.106272083655523e-15	2.686547375669602e-15	-2.737739332168348e-14	-6.800641079618993e-15	1.810558051008318e-14	1.811397679180921e-14	6.078923843686843e-18	2.748056580735339e-16	24.08260139224718	-7.726980801316859	-52.24447997627816	0.02623433381374573	44.95579728290691	-4.082660067424397e-18	2.361437942842471e-16
14.26666666666667	0	0	0	0	0.93	0	0	0	0	0	0	0	0	0	0	0	0	0	0	0	0	0	0	1.379345718140675e-32	0	0	0	0	0	0	0	0	24.06637225465228	-7.73033755291009	-52.28157751122338	0.02614084963548691	44.95603977276475	0	0
14.28333333333333	-2.342463089693978e-33	8.221541155223099e-41	3.347337997636305e-34	0	0.93	0	0	0	0	0	0	0	0	0	0	0	0	0	0	0	0	0	0	0	0	0	0	0	0	0	0	3.946339754507087e-39	24.05241737342284	-7.730207343982775	-52.30933800238033	0.02611636778970649	44.95628037658374	0	1.180942171536246e-36
